<svg width="21" height="16" viewBox="0 0 21 16" fill="none" xmlns="http://www.w3.org/2000/svg">
  <path
    d="M20.53 5.01537C20.5343 4.10151 19.7964 3.35436 18.8854 3.35008C17.9744 3.3458 17.2295 4.08599 17.2252 4.99985C17.2216 5.77384 17.7515 6.42648 18.4675 6.6109C17.4847 8.94862 16.2839 9.99587 14.6036 9.98799C12.8377 9.9797 11.6318 8.64741 10.808 5.79465C10.7146 5.47385 10.6732 5.17218 10.6327 4.87995C10.6225 4.80753 10.6125 4.73684 10.602 4.66671C11.734 4.50812 12.6108 3.53629 12.6163 2.357C12.6224 1.06359 11.578 0.00608034 10.2883 2.61082e-05C8.99864 -0.00602813 7.94468 1.04163 7.93861 2.33504C7.93307 3.51548 8.80272 4.49608 9.93452 4.66415C9.92335 4.7356 9.90935 4.80247 9.89845 4.8765C9.85545 5.16834 9.81098 5.46961 9.71395 5.79037C8.86399 8.63442 7.64563 9.95532 5.87977 9.94703C4.19945 9.93915 3.00852 8.88066 2.04748 6.53382C2.76545 6.35613 3.30114 5.70849 3.30478 4.9345C3.30907 4.02065 2.57148 3.2735 1.66018 3.26922C0.74916 3.26494 0.00430856 4.00513 1.85807e-05 4.91899C-0.0038847 5.75047 0.607642 6.44183 1.40462 6.56313L3.07345 15.7014C3.07568 15.7132 3.08219 15.7227 3.08556 15.7338C3.09005 15.7484 3.09455 15.7625 3.10133 15.7757C3.11065 15.7946 3.12255 15.8109 3.13559 15.8273C3.14409 15.8382 3.15203 15.8491 3.16196 15.8583C3.17871 15.8738 3.19748 15.8851 3.21739 15.896C3.22791 15.9021 3.23729 15.9096 3.24867 15.9142C3.2814 15.9272 3.31587 15.9354 3.35236 15.9356L17.0744 16C17.1109 16.0002 17.1457 15.9923 17.1783 15.9796C17.1903 15.9748 17.1994 15.9674 17.2106 15.9615C17.2297 15.9507 17.2489 15.9399 17.2652 15.9248C17.2758 15.9154 17.2835 15.9043 17.2927 15.8932C17.3056 15.8775 17.3174 15.8616 17.3269 15.8427C17.3338 15.829 17.3384 15.8147 17.3433 15.8002C17.3468 15.789 17.3531 15.7799 17.3555 15.7685L19.11 6.64624C19.9081 6.53272 20.5261 5.84685 20.53 5.01537ZM8.50889 2.33772C8.51348 1.35979 9.31047 0.567503 10.2856 0.572081C11.2611 0.57666 12.0506 1.3764 12.046 2.35433C12.0414 3.33254 11.2444 4.12483 10.269 4.12025C9.29381 4.11567 8.50429 3.31593 8.50889 2.33772ZM5.87708 10.5191C8.89214 10.5332 9.92172 7.08765 10.2601 5.95569L10.2604 5.95454C10.5881 7.09049 11.5864 10.5459 14.6009 10.56C16.3217 10.5681 17.4353 9.57194 18.1936 8.39075L16.8404 15.4274L3.59171 15.3652L2.30486 8.31645C3.05236 9.50442 4.15656 10.511 5.87708 10.5191ZM0.570296 4.92167C0.573106 4.32301 1.0607 3.83847 1.65749 3.84127C2.25429 3.84407 2.73731 4.33317 2.7345 4.93183C2.73169 5.52991 2.2441 6.01445 1.6473 6.01165C1.05051 6.00885 0.567488 5.51975 0.570296 4.92167ZM18.8725 6.09251C18.2757 6.08971 17.7927 5.60061 17.7955 5.00253C17.7983 4.40387 18.2859 3.91933 18.8827 3.92214C19.4795 3.92494 19.9625 4.41403 19.9597 5.01269C19.9569 5.61077 19.4693 6.09531 18.8725 6.09251Z"
    fill="#EA3A37" />
  <path
    d="M17.313 15.4946L18.7468 7.01036C17.4674 9.58967 15.7121 10.0588 14.9944 9.97093C12.3348 10.3133 10.7763 6.67724 10.3295 4.81642C10.0182 6.33573 8.96189 8.1895 8.47262 8.92646C5.16674 11.2428 2.70807 8.56145 1.89197 6.93124L3.43622 15.4295L17.313 15.4946Z"
    fill="#EA3A37" />
  <path
    d="M12.4326 2.35444C12.4272 3.50928 11.4866 4.44106 10.3318 4.43564C9.17696 4.43022 8.24518 3.48964 8.2506 2.33481C8.25602 1.17997 9.1966 0.248186 10.3514 0.253607C11.5063 0.259028 12.4381 1.1996 12.4326 2.35444Z"
    fill="#EA3A37" />
  <path
    d="M20.2775 4.92633C20.2738 5.73122 19.6182 6.38064 18.8133 6.37686C18.0084 6.37308 17.359 5.71753 17.3628 4.91265C17.3666 4.10776 18.0221 3.45833 18.827 3.46211C19.6319 3.46589 20.2813 4.12144 20.2775 4.92633Z"
    fill="#EA3A37" />
  <path
    d="M2.9149 4.84461C2.91112 5.6495 2.25557 6.29892 1.45069 6.29515C0.645799 6.29137 -0.00362709 5.63582 0.000151333 4.83093C0.00392976 4.02604 0.659482 3.37662 1.46437 3.3804C2.26925 3.38417 2.91868 4.03973 2.9149 4.84461Z"
    fill="#EA3A37" />
</svg>