<svg width="24" height="24" viewBox="0 0 24 24" fill="none" xmlns="http://www.w3.org/2000/svg">
  <rect width="24" height="24" rx="6" fill="#E6E8EB" />
  <path
    d="M13.3756 8.75C13.2761 8.75013 13.1808 8.78968 13.1105 8.85998C13.0402 8.93027 13.0007 9.02558 13.0006 9.125V9.25C13.0006 9.3163 13.0269 9.37989 13.0738 9.42677C13.1207 9.47366 13.1843 9.5 13.2506 9.5H13.5006C13.5669 9.5 13.6304 9.47366 13.6773 9.42677C13.7242 9.37989 13.7506 9.3163 13.7506 9.25V9.125C13.7504 9.02558 13.7109 8.93027 13.6406 8.85998C13.5703 8.78968 13.475 8.75013 13.3756 8.75Z"
    fill="#828E99" />
  <path
    d="M15.5005 6H8.50049C8.23527 6 7.98092 6.10536 7.79338 6.29289C7.60585 6.48043 7.50049 6.73478 7.50049 7V17C7.50049 17.2652 7.60585 17.5196 7.79338 17.7071C7.98092 17.8946 8.23527 18 8.50049 18H12.8195C13.0536 18 13.2802 17.9179 13.46 17.768L16.141 15.5335C16.2536 15.4399 16.3443 15.3225 16.4064 15.1899C16.4685 15.0572 16.5007 14.9125 16.5005 14.766V7C16.5005 6.73478 16.3951 6.48043 16.2076 6.29289C16.0201 6.10536 15.7657 6 15.5005 6ZM11.2505 15.5H9.75049C9.65103 15.5 9.55565 15.4605 9.48532 15.3902C9.415 15.3198 9.37549 15.2245 9.37549 15.125C9.37549 15.0255 9.415 14.9302 9.48532 14.8598C9.55565 14.7895 9.65103 14.75 9.75049 14.75H11.2505C11.3499 14.75 11.4453 14.7895 11.5157 14.8598C11.586 14.9302 11.6255 15.0255 11.6255 15.125C11.6255 15.2245 11.586 15.3198 11.5157 15.3902C11.4453 15.4605 11.3499 15.5 11.2505 15.5ZM13.5005 13.5H9.75049C9.65103 13.5 9.55565 13.4605 9.48532 13.3902C9.415 13.3198 9.37549 13.2245 9.37549 13.125C9.37549 13.0255 9.415 12.9302 9.48532 12.8598C9.55565 12.7895 9.65103 12.75 9.75049 12.75H13.5005C13.5999 12.75 13.6953 12.7895 13.7657 12.8598C13.836 12.9302 13.8755 13.0255 13.8755 13.125C13.8755 13.2245 13.836 13.3198 13.7657 13.3902C13.6953 13.4605 13.5999 13.5 13.5005 13.5ZM14.5005 11C14.5005 11.0995 14.461 11.1948 14.3907 11.2652C14.3203 11.3355 14.2249 11.375 14.1255 11.375C14.026 11.375 13.9306 11.3355 13.8603 11.2652C13.79 11.1948 13.7505 11.0995 13.7505 11V10.5C13.7505 10.4337 13.7241 10.3701 13.6773 10.3232C13.6304 10.2763 13.5668 10.25 13.5005 10.25H13.2505C13.1842 10.25 13.1206 10.2763 13.0737 10.3232C13.0268 10.3701 13.0005 10.4337 13.0005 10.5V11C13.0005 11.0995 12.961 11.1948 12.8907 11.2652C12.8203 11.3355 12.7249 11.375 12.6255 11.375C12.526 11.375 12.4306 11.3355 12.3603 11.2652C12.29 11.1948 12.2505 11.0995 12.2505 11V9.125C12.2505 8.82663 12.369 8.54048 12.58 8.3295C12.791 8.11853 13.0771 8 13.3755 8C13.6739 8 13.96 8.11853 14.171 8.3295C14.382 8.54048 14.5005 8.82663 14.5005 9.125V11Z"
    fill="#828E99" />
</svg>