<svg width="199" height="53" viewBox="0 0 199 53" fill="none" xmlns="http://www.w3.org/2000/svg">
  <path
    d="M63.3462 29.384L64.8838 27.2252C65.8207 28.2028 67.2819 29.0225 69.1148 29.0225C70.6728 29.0225 71.4315 28.2995 71.4315 27.5409C71.4315 25.1836 63.7688 26.8026 63.7688 21.7824C63.7688 19.5676 65.6832 17.7296 68.8195 17.7296C70.9325 17.7296 72.6891 18.3711 74.0078 19.588L72.4294 21.6653C71.35 20.6674 69.9142 20.2041 68.5599 20.2041C67.343 20.2041 66.6608 20.7438 66.6608 21.5431C66.6608 23.6612 74.3031 22.2458 74.3031 27.2201C74.3031 29.659 72.5669 31.497 68.9774 31.497C66.4164 31.5021 64.5834 30.6416 63.3462 29.384Z"
    fill="white" />
  <path
    d="M75.1797 24.6058C75.1797 20.5122 78.2753 17.7119 82.2619 17.7119C85.1946 17.7119 86.8901 19.3107 87.832 20.9705L85.3983 22.167C84.8382 21.0876 83.6417 20.2322 82.2619 20.2322C79.8486 20.2322 78.092 22.0906 78.092 24.6058C78.092 27.121 79.8486 28.9794 82.2619 28.9794C83.6417 28.9794 84.8382 28.1393 85.3983 27.0395L87.832 28.2207C86.8748 29.8806 85.1997 31.4946 82.2619 31.4946C78.2702 31.4997 75.1797 28.7044 75.1797 24.6058Z"
    fill="white" />
  <path
    d="M98.2494 31.263V25.6674H91.9614V31.263H89.1255V17.9335H91.9614V23.1675H98.2494V17.9335H101.101V31.263H98.2494Z"
    fill="white" />
  <path
    d="M102.678 24.6058C102.678 20.5886 105.611 17.7119 109.623 17.7119C113.655 17.7119 116.588 20.5886 116.588 24.6058C116.588 28.623 113.655 31.4997 109.623 31.4997C105.611 31.4997 102.678 28.623 102.678 24.6058ZM113.671 24.6058C113.671 22.1059 112.072 20.2322 109.618 20.2322C107.164 20.2322 105.585 22.111 105.585 24.6058C105.585 27.0854 107.164 28.9794 109.618 28.9794C112.077 28.9794 113.671 27.0854 113.671 24.6058Z"
    fill="white" />
  <path
    d="M117.545 24.6058C117.545 20.5886 120.478 17.7119 124.49 17.7119C128.522 17.7119 131.455 20.5886 131.455 24.6058C131.455 28.623 128.522 31.4997 124.49 31.4997C120.478 31.4997 117.545 28.623 117.545 24.6058ZM128.537 24.6058C128.537 22.1059 126.944 20.2322 124.485 20.2322C122.031 20.2322 120.452 22.111 120.452 24.6058C120.452 27.0854 122.031 28.9794 124.485 28.9794C126.944 28.9794 128.537 27.0854 128.537 24.6058Z"
    fill="white" />
  <path d="M133.052 31.263V17.9335H135.883V28.7631H141.514V31.263H133.052Z" fill="white" />
  <path d="M146.816 31.263L141.669 17.9335H144.902L148.593 28.1826L152.264 17.9335H155.497L150.37 31.263H146.816Z"
    fill="white" />
  <path
    d="M155.702 24.6058C155.702 20.5886 158.635 17.7119 162.647 17.7119C166.679 17.7119 169.612 20.5886 169.612 24.6058C169.612 28.623 166.679 31.4997 162.647 31.4997C158.635 31.4997 155.702 28.623 155.702 24.6058ZM166.695 24.6058C166.695 22.1059 165.096 20.2322 162.642 20.2322C160.188 20.2322 158.609 22.111 158.609 24.6058C158.609 27.0854 160.188 28.9794 162.642 28.9794C165.096 28.9794 166.695 27.0854 166.695 24.6058Z"
    fill="white" />
  <path d="M174.042 17.9335H171.206V31.2579H174.042V17.9335Z" fill="white" />
  <path
    d="M175.635 24.6058C175.635 20.5122 178.73 17.7119 182.717 17.7119C185.65 17.7119 187.35 19.3107 188.287 20.9705L185.853 22.167C185.293 21.0876 184.097 20.2322 182.722 20.2322C180.309 20.2322 178.552 22.0906 178.552 24.6058C178.552 27.121 180.309 28.9794 182.722 28.9794C184.102 28.9794 185.298 28.1393 185.853 27.0395L188.287 28.2207C187.33 29.8806 185.655 31.4946 182.717 31.4946C178.725 31.4997 175.635 28.7044 175.635 24.6058Z"
    fill="white" />
  <path d="M189.581 31.263V17.9335H199V20.4334H192.417V23.249H198.862V25.7489H192.417V28.7631H199V31.263H189.581Z"
    fill="white" />
  <path
    d="M26.16 0C11.7155 0 0 11.7257 0 26.1906C0 32.0051 1.89403 37.3817 5.09657 41.7247C5.22386 41.8978 5.35624 42.0709 5.48862 42.239L2.66794 49.7998L10.0099 46.7907C11.1096 47.6563 12.2756 48.4353 13.5077 49.1175C17.255 51.1948 21.5726 52.3812 26.16 52.3812C40.6046 52.3812 52.3201 40.6555 52.3201 26.1906C52.3201 11.7257 40.6046 0 26.16 0ZM26.16 50.5279C22.0461 50.5279 17.978 49.479 14.4038 47.4984C13.2735 46.8722 12.1839 46.1441 11.1554 45.3346L10.3001 44.6625L5.84502 46.526L7.5914 41.9233L6.95497 41.1035C6.83277 40.9457 6.71057 40.7879 6.59347 40.6249C3.49276 36.4194 1.85839 31.4297 1.85839 26.1906C1.85839 12.7694 12.7643 1.85331 26.1651 1.85331C39.5659 1.85331 50.4719 12.7694 50.4719 26.1906C50.4668 39.6117 39.5608 50.5279 26.16 50.5279Z"
    fill="white" />
  <path
    d="M26.16 40.0868L22.2752 36.1969L15.0249 41.1153L16.0279 42.5969L22.0562 38.5084L26.16 42.6173L30.2688 38.5084L36.2971 42.5969L37.3001 41.1153L30.0499 36.1969L26.16 40.0868Z"
    fill="white" />
  <path
    d="M26.1593 9.76477L13.8125 15.508H13.8176V17.7126H17.5853V25.1105H18.9804C19.016 25.8539 19.0975 26.5769 19.2197 27.2744H19.2095C19.2553 27.529 19.3113 27.7733 19.3673 28.0228C19.3877 28.1145 19.4131 28.2112 19.4335 28.3029C19.4539 28.3742 19.4691 28.4505 19.4895 28.5218C19.907 30.1154 20.5536 31.5359 21.3886 32.6714C21.913 33.3994 22.4986 34.0104 23.1401 34.4788H28.8171H29.1735C29.8099 34.0155 30.4006 33.3994 30.9199 32.6764C31.76 31.536 32.4066 30.1154 32.8241 28.5167C32.8445 28.4454 32.8597 28.3792 32.8801 28.3079C32.9056 28.2112 32.9259 28.1196 32.9514 28.0228C33.0074 27.7784 33.0634 27.529 33.1092 27.2795H33.099C33.2212 26.582 33.3027 25.8539 33.3383 25.1156H34.7385V17.7177H36.3678V21.409H35.6346V25.1003H37.997V21.409H37.2639V17.7177H38.4909V15.513H38.496L26.1593 9.76477ZM31.2865 27.2744C30.8181 29.591 29.8354 31.5563 28.5167 32.6866H23.8274C22.5037 31.5563 21.521 29.5961 21.0577 27.2795C20.9151 26.587 20.8235 25.859 20.7827 25.1156H31.5614C31.5156 25.8539 31.4239 26.5819 31.2865 27.2744ZM32.9565 23.3183H31.5818V23.3234H20.7522V23.3183H19.3775V17.7126H32.9565V23.3183ZM26.1593 15.9204H17.1678L26.1593 11.7352L35.1509 15.9204H26.1593Z"
    fill="white" />
</svg>