<svg width="24" height="24" viewBox="0 0 24 24" fill="none" xmlns="http://www.w3.org/2000/svg">
  <rect width="24" height="24" rx="6" fill="#E6E8EB" />
  <path
    d="M17.0661 15.1131C17.0444 15.1044 17.0257 15.0897 17.0119 15.0708C16.9982 15.0519 16.9901 15.0295 16.9886 15.0062C16.9277 14.1235 16.5339 13.2966 15.8866 12.6924C15.2393 12.0882 14.3866 11.7516 13.5006 11.7505H12.6255C12.5923 11.7505 12.5605 11.7374 12.5371 11.714C12.5136 11.6906 12.5005 11.6588 12.5005 11.6257V8.99677C12.5005 8.97217 12.5077 8.94811 12.5213 8.92759C12.5349 8.90708 12.5543 8.89102 12.577 8.88141C12.8972 8.74828 13.1613 8.50845 13.3244 8.20274C13.4875 7.89702 13.5395 7.54432 13.4715 7.20464C13.4036 6.86496 13.2198 6.55929 12.9516 6.33966C12.6834 6.12003 12.3472 6 12.0004 6C11.6535 6 11.3174 6.12003 11.0492 6.33966C10.781 6.55929 10.5972 6.86496 10.5293 7.20464C10.4613 7.54432 10.5133 7.89702 10.6764 8.20274C10.8395 8.50845 11.1036 8.74828 11.4238 8.88141C11.4465 8.89102 11.4658 8.90708 11.4794 8.92759C11.4931 8.94811 11.5003 8.97217 11.5003 8.99677V11.6252C11.5003 11.6583 11.4871 11.6901 11.4637 11.7135C11.4403 11.7369 11.4085 11.75 11.3753 11.75H10.2501C9.39064 11.7604 8.56957 12.1073 7.9637 12.7162C7.35782 13.3252 7.01558 14.1473 7.01066 15.0057C7.00918 15.0292 7.00114 15.0518 6.98743 15.071C6.97373 15.0901 6.95493 15.1051 6.93315 15.1141C6.61238 15.245 6.34688 15.4828 6.18176 15.7871C6.01664 16.0913 5.96207 16.4433 6.02734 16.7831C6.0926 17.123 6.27366 17.4299 6.53977 17.6515C6.80588 17.8732 7.14062 17.996 7.48713 17.9992C7.83364 18.0023 8.17056 17.8855 8.44064 17.6687C8.71072 17.4519 8.89732 17.1484 8.96873 16.8097C9.04014 16.4711 8.99197 16.1182 8.83239 15.811C8.67281 15.5038 8.41166 15.2613 8.09332 15.1246C8.06949 15.1141 8.04948 15.0966 8.03605 15.0743C8.02262 15.052 8.01642 15.0262 8.01831 15.0002C8.02087 14.4078 8.25614 13.8401 8.67352 13.4192C9.09089 12.9983 9.65702 12.7577 10.2501 12.7494H11.3753C11.4085 12.7494 11.4403 12.7625 11.4637 12.7859C11.4871 12.8094 11.5003 12.8411 11.5003 12.8742V15.0032C11.5003 15.0278 11.4931 15.0519 11.4794 15.0724C11.4658 15.0929 11.4465 15.109 11.4238 15.1186C11.1036 15.2517 10.8395 15.4916 10.6764 15.7973C10.5133 16.103 10.4613 16.4557 10.5293 16.7954C10.5972 17.135 10.781 17.4407 11.0492 17.6603C11.3174 17.88 11.6535 18 12.0004 18C12.3472 18 12.6834 17.88 12.9516 17.6603C13.2198 17.4407 13.4036 17.135 13.4715 16.7954C13.5395 16.4557 13.4875 16.103 13.3244 15.7973C13.1613 15.4916 12.8972 15.2517 12.577 15.1186C12.5542 15.1089 12.5348 15.0928 12.5212 15.0722C12.5076 15.0516 12.5004 15.0274 12.5005 15.0027V12.8737C12.5005 12.8406 12.5136 12.8089 12.5371 12.7854C12.5605 12.762 12.5923 12.7489 12.6255 12.7489H13.5006C14.1194 12.7506 14.7154 12.9818 15.1732 13.3976C15.6309 13.8134 15.9177 14.3842 15.978 14.9992C15.9806 15.0255 15.9748 15.052 15.9614 15.0748C15.948 15.0976 15.9277 15.1155 15.9035 15.1261C15.5856 15.2637 15.3253 15.5069 15.1667 15.8145C15.008 16.122 14.9608 16.4749 15.0331 16.8132C15.1053 17.1516 15.2926 17.4545 15.5631 17.6706C15.8336 17.8867 16.1707 18.0027 16.517 17.9988C16.8634 17.995 17.1978 17.8715 17.4634 17.6494C17.729 17.4273 17.9094 17.1202 17.9741 16.7804C18.0388 16.4405 17.9837 16.0888 17.8182 15.7848C17.6527 15.4809 17.387 15.2436 17.0661 15.1131Z"
    fill="#828E99" />
</svg>